HIERARCHY
ROOT hip
{
  OFFSET -4.98153 83.5781 37.3499
  CHANNELS 6 Xposition Yposition Zposition Zrotation Xrotation Yrotation
  JOINT abdomen
  {
    OFFSET 0 20.6881 -0.73152
    CHANNELS 3 Zrotation Xrotation Yrotation
    JOINT chest
    {
      OFFSET 0 11.7043 -0.48768
      CHANNELS 3 Zrotation Xrotation Yrotation
      JOINT neck
      {
        OFFSET 0 22.1894 -2.19456
        CHANNELS 3 Zrotation Xrotation Yrotation
        JOINT head
        {
          OFFSET -0.24384 7.07133 1.2192
          CHANNELS 3 Zrotation Xrotation Yrotation
          JOINT leftEye
          {
            OFFSET 4.14528 8.04674 8.04672
            CHANNELS 3 Zrotation Xrotation Yrotation
            End Site
            {
              OFFSET 1 0 0
            }
          }
          JOINT rightEye
          {
            OFFSET -3.6576 8.04674 8.04672
            CHANNELS 3 Zrotation Xrotation Yrotation
            End Site
            {
              OFFSET 1 0 0
            }
          }
        }
      }
      JOINT rCollar
      {
        OFFSET -2.68224 19.2634 -4.8768
        CHANNELS 3 Zrotation Xrotation Yrotation
        JOINT rShldr
        {
          OFFSET -8.77824 -1.95073 1.46304
          CHANNELS 3 Zrotation Xrotation Yrotation
          JOINT rForeArm
          {
            OFFSET -28.1742 -1.7115 0.48768
            CHANNELS 3 Zrotation Xrotation Yrotation
            JOINT rHand
            {
              OFFSET -22.5879 0.773209 7.07136
              CHANNELS 3 Zrotation Xrotation Yrotation
              JOINT rThumb1
              {
                OFFSET -1.2192 -0.487915 3.41376
                CHANNELS 3 Zrotation Xrotation Yrotation
                JOINT rThumb2
                {
                  OFFSET -3.37035 -0.52449 3.41376
                  CHANNELS 3 Zrotation Xrotation Yrotation
                  End Site
                  {
                    OFFSET -1.78271 -1.18214 1.43049
                  }
                }
              }
              JOINT rIndex1
              {
                OFFSET -7.75947 0.938293 5.60832
                CHANNELS 3 Zrotation Xrotation Yrotation
                JOINT rIndex2
                {
                  OFFSET -2.54057 -0.884171 1.56538
                  CHANNELS 3 Zrotation Xrotation Yrotation
                  End Site
                  {
                    OFFSET -1.62519 -0.234802 1.16502
                  }
                }
              }
              JOINT rMid1
              {
                OFFSET -8.24714 1.18213 3.41376
                CHANNELS 3 Zrotation Xrotation Yrotation
                JOINT rMid2
                {
                  OFFSET -3.10165 -0.590103 1.0647
                  CHANNELS 3 Zrotation Xrotation Yrotation
                  End Site
                  {
                    OFFSET -2.48547 -0.328903 0.83742
                  }
                }
              }
              JOINT rRing1
              {
                OFFSET -8.82822 0.546677 1.51678
                CHANNELS 3 Zrotation Xrotation Yrotation
                JOINT rRing2
                {
                  OFFSET -2.60934 -0.819778 -0.0198488
                  CHANNELS 3 Zrotation Xrotation Yrotation
                  End Site
                  {
                    OFFSET -2.33842 -0.294052 0.168128
                  }
                }
              }
              JOINT rPinky1
              {
                OFFSET -8.27202 -0.0477905 -0.4584
                CHANNELS 3 Zrotation Xrotation Yrotation
                JOINT rPinky2
                {
                  OFFSET -1.82734 -0.647385 -0.700984
                  CHANNELS 3 Zrotation Xrotation Yrotation
                  End Site
                  {
                    OFFSET -1.69225 -0.51767 -0.607171
                  }
                }
              }
            }
          }
        }
      }
      JOINT lCollar
      {
        OFFSET 2.68224 19.2634 -4.8768
        CHANNELS 3 Zrotation Xrotation Yrotation
        JOINT lShldr
        {
          OFFSET 8.77824 -1.95073 1.46304
          CHANNELS 3 Zrotation Xrotation Yrotation
          JOINT lForeArm
          {
            OFFSET 28.1742 -1.7115 0.48768
            CHANNELS 3 Zrotation Xrotation Yrotation
            JOINT lHand
            {
              OFFSET 22.5879 0.773209 7.07136
              CHANNELS 3 Zrotation Xrotation Yrotation
              JOINT lThumb1
              {
                OFFSET 1.2192 -0.487915 3.41376
                CHANNELS 3 Zrotation Xrotation Yrotation
                JOINT lThumb2
                {
                  OFFSET 3.37035 -0.52449 3.41376
                  CHANNELS 3 Zrotation Xrotation Yrotation
                  End Site
                  {
                    OFFSET 1.78271 -1.18214 1.43049
                  }
                }
              }
              JOINT lIndex1
              {
                OFFSET 7.75947 0.938293 5.60832
                CHANNELS 3 Zrotation Xrotation Yrotation
                JOINT lIndex2
                {
                  OFFSET 2.54057 -0.884171 1.56538
                  CHANNELS 3 Zrotation Xrotation Yrotation
                  End Site
                  {
                    OFFSET 1.62519 -0.234802 1.16502
                  }
                }
              }
              JOINT lMid1
              {
                OFFSET 8.24714 1.18213 3.41376
                CHANNELS 3 Zrotation Xrotation Yrotation
                JOINT lMid2
                {
                  OFFSET 3.10165 -0.590103 1.0647
                  CHANNELS 3 Zrotation Xrotation Yrotation
                  End Site
                  {
                    OFFSET 2.48547 -0.328903 0.83742
                  }
                }
              }
              JOINT lRing1
              {
                OFFSET 8.82822 0.546677 1.51678
                CHANNELS 3 Zrotation Xrotation Yrotation
                JOINT lRing2
                {
                  OFFSET 2.60934 -0.819778 -0.0198488
                  CHANNELS 3 Zrotation Xrotation Yrotation
                  End Site
                  {
                    OFFSET 2.33842 -0.294052 0.168128
                  }
                }
              }
              JOINT lPinky1
              {
                OFFSET 8.27202 -0.0477905 -0.4584
                CHANNELS 3 Zrotation Xrotation Yrotation
                JOINT lPinky2
                {
                  OFFSET 1.82734 -0.647385 -0.700984
                  CHANNELS 3 Zrotation Xrotation Yrotation
                  End Site
                  {
                    OFFSET 1.69225 -0.51767 -0.607171
                  }
                }
              }
            }
          }
        }
      }
    }
  }
  JOINT rButtock
  {
    OFFSET -8.77824 4.35084 1.2192
    CHANNELS 3 Zrotation Xrotation Yrotation
    JOINT rThigh
    {
      OFFSET 0 -1.70687 -2.19456
      CHANNELS 3 Zrotation Xrotation Yrotation
      JOINT rShin
      {
        OFFSET 0 -36.8199 0.73152
        CHANNELS 3 Zrotation Xrotation Yrotation
        JOINT rFoot
        {
          OFFSET 0.73152 -45.1104 -5.12064
          CHANNELS 3 Zrotation Xrotation Yrotation
          End Site
          {
            OFFSET -1.1221 -3.69964 12.103
          }
        }
      }
    }
  }
  JOINT lButtock
  {
    OFFSET 8.77824 4.35084 1.2192
    CHANNELS 3 Zrotation Xrotation Yrotation
    JOINT lThigh
    {
      OFFSET 0 -1.70687 -2.19456
      CHANNELS 3 Zrotation Xrotation Yrotation
      JOINT lShin
      {
        OFFSET 0 -36.8199 0.73152
        CHANNELS 3 Zrotation Xrotation Yrotation
        JOINT lFoot
        {
          OFFSET -0.73152 -45.1104 -5.12064
          CHANNELS 3 Zrotation Xrotation Yrotation
          End Site
          {
            OFFSET 1.1221 -3.69964 12.103
          }
        }
      }
    }
  }
}
MOTION
Frames:	4
Frame Time:	0.00833333
-4.69747 83.783 31.8337 -1.67512 -0.806087 1.10491 -1.2817 8.76481 -6.85638 0.432768 -3.11401 -1.97138 -8.07803 3.27042 -7.43219 15.6206 6.46506 -13.8726 -0 0 0 -0 0 0 3.95405e-014 3.97193e-015 4.33288e-014 58.389 41.549 7.74386 -27.3917 -42.929 89.2831 -0.349434 -17.7985 -2.56361 2.37882e-010 1.19182e-009 9.14877e-011 4.1121e-010 2.05908e-009 1.61168e-010 2.3789e-010 1.1918e-009 9.14849e-011 7.73091 5.47488 0.417314 2.37879e-010 1.1918e-009 9.14803e-011 2.90554 0.965183 0.102902 2.37889e-010 1.19179e-009 9.14868e-011 10.2786 0.731801 0.0259123 2.3788e-010 1.19184e-009 9.14916e-011 2.22167 -0.733487 -0.20892 3.94106e-014 3.97836e-015 4.31145e-014 -28.3961 36.7009 -76.0224 27.1775 -26.8917 -61.9585 0.663587 -23.0775 3.41764 -1.34332e-010 1.00752e-009 5.75931e-010 -2.42464e-010 1.75249e-009 9.9244e-010 -1.3434e-010 1.00752e-009 5.75953e-010 -7.73091 5.47488 -0.417314 -1.34332e-010 1.00751e-009 5.75933e-010 -2.90554 0.965183 -0.102902 -1.34337e-010 1.00751e-009 5.75932e-010 -10.2786 0.731801 -0.0259123 -1.34326e-010 1.00751e-009 5.75927e-010 -2.22167 -0.733487 0.20892 -2.03217e-016 0 -3.88251e-019 -21.5076 -3.13853 -0.0159927 -0.000673656 -0.251652 -0.00585805 0.486657 3.38968 -0.0146089 2.03217e-016 0 3.88251e-019 8.92085 -10.386 -3.86295 0.0803224 23.9746 -0.575 3.44354 -15.4364 12.4166 
-4.70137 83.7703 31.8939 -1.67847 -0.83172 1.07415 -1.08295 8.90155 -7.37225 0.320759 -3.22779 -2.11706 -7.95881 3.18703 -7.31409 15.1247 6.2482 -13.5969 -0 0 0 -0 0 0 7.95115e-015 -6.28701e-015 6.65587e-014 61.6782 42.1537 4.87622 -27.2147 -43.4504 90.3173 -0.107857 -11.4089 -1.6092 1.28642e-010 3.46257e-010 -2.16559e-011 2.23131e-010 6.01174e-010 -3.67564e-011 1.28649e-010 3.46249e-010 -2.16567e-011 7.73091 5.47488 0.417314 1.2864e-010 3.46258e-010 -2.16654e-011 2.90554 0.965183 0.102902 1.28651e-010 3.46247e-010 -2.16579e-011 10.2786 0.731801 0.0259123 1.28643e-010 3.46286e-010 -2.1655e-011 2.22167 -0.733487 -0.20892 7.85819e-015 -6.28678e-015 6.63851e-014 -27.2106 37.6841 -76.0628 26.7908 -25.6351 -60.0668 0.912219 -26.3781 3.98613 3.76383e-011 8.58677e-010 6.08238e-010 5.28074e-011 1.49919e-009 1.05087e-009 3.76263e-011 8.58695e-010 6.08265e-010 -7.73091 5.47488 -0.417314 3.76399e-011 8.58675e-010 6.08243e-010 -2.90554 0.965183 -0.102902 3.76351e-011 8.58674e-010 6.0824e-010 -10.2786 0.731801 -0.0259123 3.76449e-011 8.58676e-010 6.08237e-010 -2.22167 -0.733487 0.20892 -2.03217e-016 0 -3.88251e-019 -21.5078 -3.1405 -0.0160177 -0.000684355 -0.252009 -0.00595211 0.486724 3.39208 -0.0145897 2.03217e-016 0 3.88251e-019 8.93901 -10.3212 -3.81387 0.0813975 23.9782 -0.575116 3.442 -15.464 12.3972 
-4.69255 83.7578 31.9956 -1.62706 -0.797421 0.752821 -0.953722 8.959 -7.77969 0.218177 -3.32764 -2.23324 -7.77383 3.11449 -7.12778 14.5003 6.08218 -13.2062 -0 0 0 -0 0 0 -1.06011e-014 -1.11304e-014 8.11538e-014 64.3702 42.671 2.66106 -27.1043 -43.7298 90.9101 -0.0706862 -7.56382 -1.06931 5.60915e-011 -2.29664e-010 -9.73313e-011 9.83137e-011 -3.90982e-010 -1.69083e-010 5.60958e-011 -2.29664e-010 -9.73313e-011 7.73091 5.47488 0.417314 5.60894e-011 -2.29651e-010 -9.73409e-011 2.90554 0.965183 0.102902 5.61013e-011 -2.29662e-010 -9.73337e-011 10.2786 0.731801 0.0259123 5.60944e-011 -2.29629e-010 -9.73313e-011 2.22167 -0.733487 -0.20892 -1.06695e-014 -1.11339e-014 8.10047e-014 -26.7665 38.8522 -75.6147 26.4329 -24.6001 -58.6416 1.09662 -28.3231 4.34412 1.31293e-010 7.88226e-010 6.32399e-010 2.13431e-010 1.37894e-009 1.09391e-009 1.31279e-010 7.88248e-010 6.32428e-010 -7.73091 5.47488 -0.417314 1.31295e-010 7.88226e-010 6.32406e-010 -2.90554 0.965183 -0.102902 1.3129e-010 7.88226e-010 6.32402e-010 -10.2786 0.731801 -0.0259123 1.31299e-010 7.88227e-010 6.32399e-010 -2.22167 -0.733487 0.20892 -2.03217e-016 0 -3.88251e-019 -21.5049 -3.14136 -0.016106 -0.000711663 -0.253758 -0.00619223 0.483035 3.3947 -0.0140317 2.03217e-016 0 3.88251e-019 8.87146 -10.2695 -3.6905 0.0815972 23.9821 -0.577116 3.52356 -15.5561 12.5727 
-4.67919 83.75 32.0678 -1.49328 -0.661555 -0.00993297 -0.914744 8.8878 -8.05344 0.120776 -3.43211 -2.31339 -7.47471 3.06054 -6.8232 13.601 6.01276 -12.6123 -0 0 0 -0 0 0 -1.03669e-014 -8.67666e-015 9.29796e-014 66.2009 43.1911 1.5334 -27.1212 -43.6779 90.8136 -0.0873062 -7.35814 -1.04526 1.15016e-011 -1.03107e-009 -1.87084e-010 2.25338e-011 -1.77969e-009 -3.24843e-010 1.15038e-011 -1.03107e-009 -1.87085e-010 7.73091 5.47488 0.417314 1.14997e-011 -1.03106e-009 -1.8709e-010 2.90554 0.965183 0.102902 1.1511e-011 -1.03107e-009 -1.87085e-010 10.2786 0.731801 0.0259123 1.15049e-011 -1.03104e-009 -1.87081e-010 2.22167 -0.733487 -0.20892 -1.0432e-014 -8.68008e-015 9.28274e-014 -27.5982 40.3656 -74.2527 26.1936 -23.951 -57.7215 1.09134 -28.1982 4.32366 9.78631e-011 8.57695e-010 6.62985e-010 1.55132e-010 1.49607e-009 1.14564e-009 9.78489e-011 8.57715e-010 6.63012e-010 -7.73091 5.47488 -0.417314 9.78652e-011 8.57696e-010 6.62994e-010 -2.90554 0.965183 -0.102902 9.78582e-011 8.57697e-010 6.6299e-010 -10.2786 0.731801 -0.0259123 9.78675e-011 8.57699e-010 6.62986e-010 -2.22167 -0.733487 0.20892 -2.03217e-016 0 -3.88251e-019 -21.497 -3.14095 -0.0162975 -0.000762931 -0.256013 -0.00664271 0.473809 3.39647 -0.0126946 2.03217e-016 0 3.88251e-019 8.67328 -10.2581 -3.45894 0.0805384 23.9958 -0.582262 3.73694 -15.7404 13.0567 
